<svg width="32" height="33" viewBox="0 0 32 33" fill="none" xmlns="http://www.w3.org/2000/svg">
<path d="M16.2078 32.1819C14.1042 32.1819 12.0632 31.7598 10.1415 30.9276C8.28547 30.1238 6.61888 28.9733 5.18794 27.5077C3.75701 26.0422 2.63316 24.3356 1.84816 22.4354C1.03547 20.4675 0.623306 18.3776 0.623306 16.2235C0.623306 14.0694 1.03547 11.9794 1.84816 10.0116C2.63316 8.11106 3.7567 6.40449 5.18794 4.93922C6.61919 3.47364 8.28578 2.32314 10.1415 1.51931C12.0632 0.687128 14.1042 0.265076 16.2078 0.265076C18.3114 0.265076 20.3524 0.687128 22.2742 1.51931C24.1302 2.32314 25.7968 3.47364 27.2277 4.93922C28.659 6.40481 29.7825 8.11138 30.5675 10.0116C31.3802 11.9794 31.7923 14.0694 31.7923 16.2235C31.7923 18.3776 31.3802 20.4675 30.5675 22.4354C29.7825 24.3359 28.659 26.0425 27.2277 27.5077C25.7965 28.973 24.1299 30.1238 22.2742 30.9276C20.3524 31.7598 18.3114 32.1819 16.2078 32.1819ZM16.2078 1.16685C8.10015 1.16685 1.50427 7.92097 1.50427 16.2232C1.50427 24.5253 8.10015 31.2795 16.2078 31.2795C24.3155 31.2795 30.9114 24.525 30.9114 16.2232C30.9114 7.9213 24.3155 1.16685 16.2078 1.16685Z" fill="black"/>
<path d="M6.87909 7.23895L14.1178 17.1498L6.83347 25.2077H8.473L14.8505 18.1527L20.0032 25.2077H25.5822L17.9361 14.7396L24.7164 7.23895H23.0768L17.2036 13.7363L12.4581 7.23895H6.87909ZM9.29009 8.47547H11.8531L23.1709 23.9712H20.6079L9.29009 8.47547Z" fill="black"/>
</svg>
